M48
;Layer_Color=9474304
;FILE_FORMAT=4:3
METRIC,LZ
;TYPE=PLATED
T1F00S00C0.700
T2F00S00C0.762
T3F00S00C0.850
T4F00S00C0.900
T5F00S00C1.200
T6F00S00C1.300
T7F00S00C4.000
%
T01
X0020955Y0031519
Y0036519
X004318Y0016383
Y0013843
T02
X004318Y00045
T03
X0015494Y00127
X0015367Y0017653
X0025527
X0025654Y00127
X0037973Y0010287
Y0020447
X0016002Y0030353
Y0040513
T04
X0018542Y00234
Y00254
X0024765Y0025654
Y0023114
Y0028194
Y0030734
X0032385
Y0028194
Y0025654
Y0023114
X0031369Y0014605
X0029369
X002921Y0040386
X003121
T05
X002Y0004
X0025
X003
T06
X0006223Y0013796
Y0018796
Y0023796
Y0029972
Y0034972
X0042037Y003048
Y002548
T07
X0005Y0005
X0042
Y0042
X0005
M30
