G04*
G04 #@! TF.GenerationSoftware,Altium Limited,Altium Designer,19.0.15 (446)*
G04*
G04 Layer_Color=2752767*
%FSLAX43Y43*%
%MOMM*%
G71*
G01*
G75*
%ADD23C,0.051*%
%ADD24C,0.068*%
D23*
X41797Y41797D02*
Y42203D01*
X42203D01*
Y41797D01*
X41797D01*
X4797D02*
Y42203D01*
X5203D01*
Y41797D01*
X4797D01*
Y4797D02*
Y5203D01*
X5203D01*
Y4797D01*
X4797D01*
X41797D02*
Y5203D01*
X42203D01*
Y4797D01*
X41797D01*
X37973Y10084D02*
X37770Y10490D01*
X38176D01*
X37973Y10084D01*
Y20244D02*
X37770Y20650D01*
X38176D01*
X37973Y20244D01*
X43180Y13640D02*
X43282Y13741D01*
X43383D01*
X43282Y13843D01*
X43383Y13945D01*
X43282D01*
X43180Y14046D01*
X43078Y13945D01*
X42977D01*
X43078Y13843D01*
X42977Y13741D01*
X43078D01*
X43180Y13640D01*
Y16180D02*
X43282Y16281D01*
X43383D01*
X43282Y16383D01*
X43383Y16485D01*
X43282D01*
X43180Y16586D01*
X43078Y16485D01*
X42977D01*
X43078Y16383D01*
X42977Y16281D01*
X43078D01*
X43180Y16180D01*
X20955Y31315D02*
X21057Y31417D01*
X21158D01*
X21057Y31519D01*
X21158Y31620D01*
X21057D01*
X20955Y31722D01*
X20853Y31620D01*
X20752D01*
X20853Y31519D01*
X20752Y31417D01*
X20853D01*
X20955Y31315D01*
Y36315D02*
X21057Y36417D01*
X21158D01*
X21057Y36519D01*
X21158Y36620D01*
X21057D01*
X20955Y36722D01*
X20853Y36620D01*
X20752D01*
X20853Y36519D01*
X20752Y36417D01*
X20853D01*
X20955Y36315D01*
X18339Y25197D02*
X18440Y25400D01*
X18339Y25603D01*
X18542Y25502D01*
X18745Y25603D01*
X18644Y25400D01*
X18745Y25197D01*
X18542Y25298D01*
X18339Y25197D01*
Y23197D02*
X18440Y23400D01*
X18339Y23603D01*
X18542Y23502D01*
X18745Y23603D01*
X18644Y23400D01*
X18745Y23197D01*
X18542Y23298D01*
X18339Y23197D01*
X16002Y40310D02*
X15799Y40716D01*
X16205D01*
X16002Y40310D01*
Y30150D02*
X15799Y30556D01*
X16205D01*
X16002Y30150D01*
X25527Y17450D02*
X25324Y17856D01*
X25730D01*
X25527Y17450D01*
X15367D02*
X15164Y17856D01*
X15570D01*
X15367Y17450D01*
X25654Y12497D02*
X25451Y12903D01*
X25857D01*
X25654Y12497D01*
X15494D02*
X15291Y12903D01*
X15697D01*
X15494Y12497D01*
X29898Y3898D02*
Y3797D01*
X30102D01*
Y3898D01*
X30203D01*
Y4102D01*
X30102D01*
Y4203D01*
X29898D01*
Y4102D01*
X29797D01*
Y3898D01*
X29898D01*
X24898D02*
Y3797D01*
X25102D01*
Y3898D01*
X25203D01*
Y4102D01*
X25102D01*
Y4203D01*
X24898D01*
Y4102D01*
X24797D01*
Y3898D01*
X24898D01*
X19898D02*
Y3797D01*
X20102D01*
Y3898D01*
X20203D01*
Y4102D01*
X20102D01*
Y4203D01*
X19898D01*
Y4102D01*
X19797D01*
Y3898D01*
X19898D01*
X6020Y23593D02*
X6121D01*
X6223Y23694D01*
X6325Y23593D01*
X6426D01*
Y23694D01*
X6325Y23796D01*
X6426Y23898D01*
Y23999D01*
X6325D01*
X6223Y23898D01*
X6121Y23999D01*
X6020D01*
Y23898D01*
X6121Y23796D01*
X6020Y23694D01*
Y23593D01*
Y18593D02*
X6121D01*
X6223Y18694D01*
X6325Y18593D01*
X6426D01*
Y18694D01*
X6325Y18796D01*
X6426Y18898D01*
Y18999D01*
X6325D01*
X6223Y18898D01*
X6121Y18999D01*
X6020D01*
Y18898D01*
X6121Y18796D01*
X6020Y18694D01*
Y18593D01*
Y13593D02*
X6121D01*
X6223Y13694D01*
X6325Y13593D01*
X6426D01*
Y13694D01*
X6325Y13796D01*
X6426Y13898D01*
Y13999D01*
X6325D01*
X6223Y13898D01*
X6121Y13999D01*
X6020D01*
Y13898D01*
X6121Y13796D01*
X6020Y13694D01*
Y13593D01*
Y34769D02*
X6121D01*
X6223Y34870D01*
X6325Y34769D01*
X6426D01*
Y34870D01*
X6325Y34972D01*
X6426Y35074D01*
Y35175D01*
X6325D01*
X6223Y35074D01*
X6121Y35175D01*
X6020D01*
Y35074D01*
X6121Y34972D01*
X6020Y34870D01*
Y34769D01*
Y29769D02*
X6121D01*
X6223Y29870D01*
X6325Y29769D01*
X6426D01*
Y29870D01*
X6325Y29972D01*
X6426Y30074D01*
Y30175D01*
X6325D01*
X6223Y30074D01*
X6121Y30175D01*
X6020D01*
Y30074D01*
X6121Y29972D01*
X6020Y29870D01*
Y29769D01*
X31166Y14402D02*
X31267Y14605D01*
X31166Y14808D01*
X31369Y14707D01*
X31572Y14808D01*
X31471Y14605D01*
X31572Y14402D01*
X31369Y14503D01*
X31166Y14402D01*
X29166D02*
X29267Y14605D01*
X29166Y14808D01*
X29369Y14707D01*
X29572Y14808D01*
X29471Y14605D01*
X29572Y14402D01*
X29369Y14503D01*
X29166Y14402D01*
X32182Y22911D02*
X32283Y23114D01*
X32182Y23317D01*
X32385Y23216D01*
X32588Y23317D01*
X32487Y23114D01*
X32588Y22911D01*
X32385Y23012D01*
X32182Y22911D01*
Y25451D02*
X32283Y25654D01*
X32182Y25857D01*
X32385Y25756D01*
X32588Y25857D01*
X32487Y25654D01*
X32588Y25451D01*
X32385Y25552D01*
X32182Y25451D01*
Y27991D02*
X32283Y28194D01*
X32182Y28397D01*
X32385Y28296D01*
X32588Y28397D01*
X32487Y28194D01*
X32588Y27991D01*
X32385Y28092D01*
X32182Y27991D01*
Y30531D02*
X32283Y30734D01*
X32182Y30937D01*
X32385Y30836D01*
X32588Y30937D01*
X32487Y30734D01*
X32588Y30531D01*
X32385Y30632D01*
X32182Y30531D01*
X24562Y22911D02*
X24663Y23114D01*
X24562Y23317D01*
X24765Y23216D01*
X24968Y23317D01*
X24867Y23114D01*
X24968Y22911D01*
X24765Y23012D01*
X24562Y22911D01*
Y25451D02*
X24663Y25654D01*
X24562Y25857D01*
X24765Y25756D01*
X24968Y25857D01*
X24867Y25654D01*
X24968Y25451D01*
X24765Y25552D01*
X24562Y25451D01*
Y27991D02*
X24663Y28194D01*
X24562Y28397D01*
X24765Y28296D01*
X24968Y28397D01*
X24867Y28194D01*
X24968Y27991D01*
X24765Y28092D01*
X24562Y27991D01*
Y30531D02*
X24663Y30734D01*
X24562Y30937D01*
X24765Y30836D01*
X24968Y30937D01*
X24867Y30734D01*
X24968Y30531D01*
X24765Y30632D01*
X24562Y30531D01*
X29007Y40183D02*
X29108Y40386D01*
X29007Y40589D01*
X29210Y40488D01*
X29413Y40589D01*
X29312Y40386D01*
X29413Y40183D01*
X29210Y40284D01*
X29007Y40183D01*
X31007D02*
X31108Y40386D01*
X31007Y40589D01*
X31210Y40488D01*
X31413Y40589D01*
X31312Y40386D01*
X31413Y40183D01*
X31210Y40284D01*
X31007Y40183D01*
X41834Y25277D02*
X41935D01*
X42037Y25378D01*
X42139Y25277D01*
X42240D01*
Y25378D01*
X42139Y25480D01*
X42240Y25582D01*
Y25683D01*
X42139D01*
X42037Y25582D01*
X41935Y25683D01*
X41834D01*
Y25582D01*
X41935Y25480D01*
X41834Y25378D01*
Y25277D01*
Y30277D02*
X41935D01*
X42037Y30378D01*
X42139Y30277D01*
X42240D01*
Y30378D01*
X42139Y30480D01*
X42240Y30582D01*
Y30683D01*
X42139D01*
X42037Y30582D01*
X41935Y30683D01*
X41834D01*
Y30582D01*
X41935Y30480D01*
X41834Y30378D01*
Y30277D01*
D24*
X43383Y4500D02*
G03*
X43383Y4500I-203J0D01*
G01*
M02*
