G04*
G04 #@! TF.GenerationSoftware,Altium Limited,Altium Designer,19.0.15 (446)*
G04*
G04 Layer_Physical_Order=1*
G04 Layer_Color=255*
%FSLAX43Y43*%
%MOMM*%
G71*
G01*
G75*
%ADD12C,1.524*%
%ADD13C,1.600*%
%ADD14C,1.200*%
%ADD15R,1.200X1.200*%
%ADD16R,1.524X1.524*%
%ADD17O,1.500X2.500*%
%ADD18C,2.540*%
%ADD19R,1.524X1.524*%
%ADD20R,2.500X1.200*%
%ADD21O,2.500X1.200*%
D12*
X42000Y42000D02*
D03*
X5000D02*
D03*
Y5000D02*
D03*
X42000D02*
D03*
X43180Y4500D02*
D03*
X18542Y23400D02*
D03*
X29369Y14605D02*
D03*
X31210Y40386D02*
D03*
D13*
X37973Y10287D02*
D03*
Y20447D02*
D03*
X16002Y40513D02*
D03*
Y30353D02*
D03*
X25527Y17653D02*
D03*
X15367D02*
D03*
X25654Y12700D02*
D03*
X15494D02*
D03*
D14*
X43180Y13843D02*
D03*
X20955Y31519D02*
D03*
Y36519D02*
D03*
D15*
X43180Y16383D02*
D03*
D16*
X18542Y25400D02*
D03*
D17*
X30000Y4000D02*
D03*
X25000D02*
D03*
X20000D02*
D03*
D18*
X6223Y23796D02*
D03*
Y18796D02*
D03*
Y13796D02*
D03*
Y34972D02*
D03*
Y29972D02*
D03*
X42037Y25480D02*
D03*
Y30480D02*
D03*
D19*
X31369Y14605D02*
D03*
X29210Y40386D02*
D03*
D20*
X32385Y23114D02*
D03*
D21*
Y25654D02*
D03*
Y28194D02*
D03*
Y30734D02*
D03*
X24765Y23114D02*
D03*
Y25654D02*
D03*
Y28194D02*
D03*
Y30734D02*
D03*
M02*
