G04*
G04 #@! TF.GenerationSoftware,Altium Limited,Altium Designer,19.0.15 (446)*
G04*
G04 Layer_Physical_Order=2*
G04 Layer_Color=16711680*
%FSLAX43Y43*%
%MOMM*%
G71*
G01*
G75*
%ADD12C,1.524*%
%ADD13C,1.600*%
%ADD14C,1.200*%
%ADD15R,1.200X1.200*%
%ADD16R,1.524X1.524*%
%ADD17O,1.500X2.500*%
%ADD18C,2.540*%
%ADD19R,1.524X1.524*%
%ADD20R,2.500X1.200*%
%ADD21O,2.500X1.200*%
%ADD22C,0.700*%
D12*
X42000Y42000D02*
D03*
X5000D02*
D03*
Y5000D02*
D03*
X42000D02*
D03*
X43180Y4500D02*
D03*
X18542Y23400D02*
D03*
X29369Y14605D02*
D03*
X31210Y40386D02*
D03*
D13*
X37973Y10287D02*
D03*
Y20447D02*
D03*
X16002Y40513D02*
D03*
Y30353D02*
D03*
X25527Y17653D02*
D03*
X15367D02*
D03*
X25654Y12700D02*
D03*
X15494D02*
D03*
D14*
X43180Y13843D02*
D03*
X20955Y31519D02*
D03*
Y36519D02*
D03*
D15*
X43180Y16383D02*
D03*
D16*
X18542Y25400D02*
D03*
D17*
X30000Y4000D02*
D03*
X25000D02*
D03*
X20000D02*
D03*
D18*
X6223Y23796D02*
D03*
Y18796D02*
D03*
Y13796D02*
D03*
Y34972D02*
D03*
Y29972D02*
D03*
X42037Y25480D02*
D03*
Y30480D02*
D03*
D19*
X31369Y14605D02*
D03*
X29210Y40386D02*
D03*
D20*
X32385Y23114D02*
D03*
D21*
Y25654D02*
D03*
Y28194D02*
D03*
Y30734D02*
D03*
X24765Y23114D02*
D03*
Y25654D02*
D03*
Y28194D02*
D03*
Y30734D02*
D03*
D22*
X19354Y36519D02*
X20955D01*
X16002Y33166D02*
X19354Y36519D01*
X16002Y30353D02*
Y33166D01*
X21963Y31423D02*
X22556Y30830D01*
X24669D01*
X24765Y30734D01*
X21051Y31423D02*
X21963D01*
X20955Y31519D02*
X21051Y31423D01*
X45339Y26670D02*
Y32385D01*
X37338Y40386D02*
X45339Y32385D01*
X31210Y40386D02*
X37338D01*
X29369Y14605D02*
Y21177D01*
X27432Y23114D02*
X29369Y21177D01*
X24765Y23114D02*
X27432D01*
X26800Y4000D02*
X29149Y1651D01*
X32385D01*
X37973Y20447D02*
Y25400D01*
X36576Y26797D02*
X37973Y25400D01*
X36576Y26797D02*
Y32131D01*
X34544Y34163D02*
X36576Y32131D01*
X42084Y25527D02*
X44196D01*
X42037Y25480D02*
X42084Y25527D01*
X34485Y3751D02*
Y27618D01*
X33909Y28194D02*
X34485Y27618D01*
X32385Y28194D02*
X33909D01*
X32385Y1651D02*
X34485Y3751D01*
X25000Y4000D02*
X26800D01*
X29591Y34163D02*
X34544D01*
X26797Y28194D02*
X27940Y29337D01*
X24765Y28194D02*
X26797D01*
X27940Y29337D02*
Y32512D01*
X29591Y34163D01*
X24669Y25558D02*
X24765Y25654D01*
X18700Y25558D02*
X24669D01*
X18542Y25400D02*
X18700Y25558D01*
X12065Y30099D02*
X13970Y28194D01*
X24765D01*
X12065Y30099D02*
Y33528D01*
X10621Y34972D02*
X12065Y33528D01*
X6223Y34972D02*
X10621D01*
X24765Y30734D02*
Y38608D01*
X26543Y40386D01*
X29210D01*
X44196Y25527D02*
X45339Y26670D01*
X31369Y14605D02*
Y18669D01*
X32385Y19685D01*
Y23114D01*
X42164Y10287D02*
X43180Y11303D01*
Y13843D01*
X37973Y10287D02*
X42164D01*
X25654Y10541D02*
X30000Y6195D01*
X25654Y10541D02*
Y12700D01*
X30000Y4000D02*
Y6195D01*
X25590Y12764D02*
X25654Y12700D01*
X25590Y12764D02*
Y17590D01*
X25527Y17653D02*
X25590Y17590D01*
X10795Y12700D02*
X15494D01*
X9699Y13796D02*
X10795Y12700D01*
X6223Y13796D02*
X9699D01*
X9732Y23796D02*
X11049Y22479D01*
X6223Y23796D02*
X9732D01*
X11049Y18542D02*
Y22479D01*
Y18542D02*
X11938Y17653D01*
X15367D01*
M02*
