G04*
G04 #@! TF.GenerationSoftware,Altium Limited,Altium Designer,19.0.15 (446)*
G04*
G04 Layer_Color=128*
%FSLAX43Y43*%
%MOMM*%
G71*
G01*
G75*
%ADD23C,0.051*%
D23*
X40000Y42000D02*
X44000D01*
X42000Y40000D02*
Y44000D01*
X3000Y42000D02*
X7000D01*
X5000Y40000D02*
Y44000D01*
X3000Y5000D02*
X7000D01*
X5000Y3000D02*
Y7000D01*
X40000Y5000D02*
X44000D01*
X42000Y3000D02*
Y7000D01*
X42799Y4500D02*
X43561D01*
X43180Y4119D02*
Y4881D01*
X37548Y10287D02*
X38398D01*
X37973Y9862D02*
Y10712D01*
X37548Y20447D02*
X38398D01*
X37973Y20022D02*
Y20872D01*
X42830Y13843D02*
X43530D01*
X43180Y13493D02*
Y14193D01*
X42830Y16383D02*
X43530D01*
X43180Y16033D02*
Y16733D01*
X20605Y31519D02*
X21305D01*
X20955Y31169D02*
Y31869D01*
X20605Y36519D02*
X21305D01*
X20955Y36169D02*
Y36869D01*
X18092Y25400D02*
X18992D01*
X18542Y24950D02*
Y25850D01*
X18092Y23400D02*
X18992D01*
X18542Y22950D02*
Y23850D01*
X15577Y40513D02*
X16427D01*
X16002Y40088D02*
Y40938D01*
X15577Y30353D02*
X16427D01*
X16002Y29928D02*
Y30778D01*
X25102Y17653D02*
X25952D01*
X25527Y17228D02*
Y18078D01*
X14942Y17653D02*
X15792D01*
X15367Y17228D02*
Y18078D01*
X25229Y12700D02*
X26079D01*
X25654Y12275D02*
Y13125D01*
X15069Y12700D02*
X15919D01*
X15494Y12275D02*
Y13125D01*
X29400Y4000D02*
X30600D01*
X30000Y3400D02*
Y4600D01*
X24400Y4000D02*
X25600D01*
X25000Y3400D02*
Y4600D01*
X19400Y4000D02*
X20600D01*
X20000Y3400D02*
Y4600D01*
X5573Y23796D02*
X6873D01*
X6223Y23146D02*
Y24446D01*
X5573Y18796D02*
X6873D01*
X6223Y18146D02*
Y19446D01*
X5573Y13796D02*
X6873D01*
X6223Y13146D02*
Y14446D01*
X5573Y34972D02*
X6873D01*
X6223Y34322D02*
Y35622D01*
X5573Y29972D02*
X6873D01*
X6223Y29322D02*
Y30622D01*
X30919Y14605D02*
X31819D01*
X31369Y14155D02*
Y15055D01*
X28919Y14605D02*
X29819D01*
X29369Y14155D02*
Y15055D01*
X31935Y23114D02*
X32835D01*
X32385Y22664D02*
Y23564D01*
X31935Y25654D02*
X32835D01*
X32385Y25204D02*
Y26104D01*
X31935Y28194D02*
X32835D01*
X32385Y27744D02*
Y28644D01*
X31935Y30734D02*
X32835D01*
X32385Y30284D02*
Y31184D01*
X24315Y23114D02*
X25215D01*
X24765Y22664D02*
Y23564D01*
X24315Y25654D02*
X25215D01*
X24765Y25204D02*
Y26104D01*
X24315Y28194D02*
X25215D01*
X24765Y27744D02*
Y28644D01*
X24315Y30734D02*
X25215D01*
X24765Y30284D02*
Y31184D01*
X28760Y40386D02*
X29660D01*
X29210Y39936D02*
Y40836D01*
X30760Y40386D02*
X31660D01*
X31210Y39936D02*
Y40836D01*
X41387Y25480D02*
X42687D01*
X42037Y24830D02*
Y26130D01*
X41387Y30480D02*
X42687D01*
X42037Y29830D02*
Y31130D01*
M02*
